HIERARCHY
ROOT Root
{
  OFFSET 0.0 0.0 0.0
  CHANNELS 6 Xposition Yposition Zposition Zrotation Yrotation Xrotation
  JOINT Hips
  {
    OFFSET 0.0 100.0 0.0
    CHANNELS 6 Xposition Yposition Zposition Zrotation Yrotation Xrotation
    JOINT Spine1
    {
      OFFSET -0.013727 5.003763 -0.053727
      CHANNELS 3 Zrotation Yrotation Xrotation
      JOINT Spine2
      {
        OFFSET -0.0 7.125301 -0.029825
        CHANNELS 3 Zrotation Yrotation Xrotation
        JOINT Chest
        {
          OFFSET -1e-06 7.550063 -0.815971
          CHANNELS 3 Zrotation Yrotation Xrotation
          JOINT Neck1
          {
            OFFSET -0.181677 26.311295 -0.553348
            CHANNELS 3 Zrotation Yrotation Xrotation
            JOINT Neck2
            {
              OFFSET -3e-06 7.709397 2.302585
              CHANNELS 3 Zrotation Yrotation Xrotation
              JOINT Head
              {
                OFFSET -5e-06 6.128916 1.953709
                CHANNELS 3 Zrotation Yrotation Xrotation
                JOINT HeadEnd
                {
                  OFFSET 0.003598 16.065403 -1.835379
                  CHANNELS 3 Zrotation Yrotation Xrotation
                }
                JOINT Jaw
                {
                  OFFSET 0.002637 0.475592 3.094941
                  CHANNELS 3 Zrotation Yrotation Xrotation
                }
                JOINT LeftEye
                {
                  OFFSET 3.206381 5.380205 7.586883
                  CHANNELS 3 Zrotation Yrotation Xrotation
                }
                JOINT RightEye
                {
                  OFFSET -3.22244 5.361869 7.558234
                  CHANNELS 3 Zrotation Yrotation Xrotation
                }
              }
            }
          }
          JOINT LeftShoulder
          {
            OFFSET 1.621652 23.237164 5.113413
            CHANNELS 3 Zrotation Yrotation Xrotation
            JOINT LeftArm
            {
              OFFSET 14.919846 2e-06 -5.502326
              CHANNELS 3 Zrotation Yrotation Xrotation
              JOINT LeftForeArm
              {
                OFFSET 28.739307 0.0 -0.002588
                CHANNELS 3 Zrotation Yrotation Xrotation
                JOINT LeftHand
                {
                  OFFSET 27.093981 -1e-06 0.002609
                  CHANNELS 3 Zrotation Yrotation Xrotation
                  JOINT LeftHandThumb1
                  {
                    OFFSET 2.276482 -1.392045 3.191413
                    CHANNELS 3 Zrotation Yrotation Xrotation
                    JOINT LeftHandThumb2
                    {
                      OFFSET 4.012836 -1.828127 1.641654
                      CHANNELS 3 Zrotation Yrotation Xrotation
                      JOINT LeftHandThumb3
                      {
                        OFFSET 2.798515 0.0 -3e-06
                        CHANNELS 3 Zrotation Yrotation Xrotation
                        JOINT LeftHandThumbEnd
                        {
                          OFFSET 3.180793 -4e-06 4e-06
                          CHANNELS 3 Zrotation Yrotation Xrotation
                        }
                      }
                    }
                  }
                  JOINT LeftHandIndex1
                  {
                    OFFSET 3.247555 -0.531998 2.296169
                    CHANNELS 3 Zrotation Yrotation Xrotation
                    JOINT LeftHandIndex2
                    {
                      OFFSET 6.364578 0.01206 0.1786
                      CHANNELS 3 Zrotation Yrotation Xrotation
                      JOINT LeftHandIndex3
                      {
                        OFFSET 3.662364 0.0 0.0
                        CHANNELS 3 Zrotation Yrotation Xrotation
                        JOINT LeftHandIndex4
                        {
                          OFFSET 2.329242 4e-06 4e-06
                          CHANNELS 3 Zrotation Yrotation Xrotation
                          JOINT LeftHandIndexEnd
                          {
                            OFFSET 2.759615 -0.180537 -0.113024
                            CHANNELS 3 Zrotation Yrotation Xrotation
                          }
                        }
                      }
                    }
                  }
                  JOINT LeftHandMiddle1
                  {
                    OFFSET 3.163495 0.240981 1.000332
                    CHANNELS 3 Zrotation Yrotation Xrotation
                    JOINT LeftHandMiddle2
                    {
                      OFFSET 6.19078 -0.259278 -1.002548
                      CHANNELS 3 Zrotation Yrotation Xrotation
                      JOINT LeftHandMiddle3
                      {
                        OFFSET 4.35652 -4e-06 -1e-06
                        CHANNELS 3 Zrotation Yrotation Xrotation
                        JOINT LeftHandMiddle4
                        {
                          OFFSET 2.996877 -8e-06 0.0
                          CHANNELS 3 Zrotation Yrotation Xrotation
                          JOINT LeftHandMiddleEnd
                          {
                            OFFSET 2.304287 -0.294569 -0.031741
                            CHANNELS 3 Zrotation Yrotation Xrotation
                          }
                        }
                      }
                    }
                  }
                  JOINT LeftHandRing1
                  {
                    OFFSET 2.882643 -0.053652 -0.322543
                    CHANNELS 3 Zrotation Yrotation Xrotation
                    JOINT LeftHandRing2
                    {
                      OFFSET 5.854541 -0.486202 -1.373841
                      CHANNELS 3 Zrotation Yrotation Xrotation
                      JOINT LeftHandRing3
                      {
                        OFFSET 4.350578 0.0 3e-06
                        CHANNELS 3 Zrotation Yrotation Xrotation
                        JOINT LeftHandRing4
                        {
                          OFFSET 2.651321 7e-06 2e-06
                          CHANNELS 3 Zrotation Yrotation Xrotation
                          JOINT LeftHandRingEnd
                          {
                            OFFSET 1.936105 0.077687 -7.1e-05
                            CHANNELS 3 Zrotation Yrotation Xrotation
                          }
                        }
                      }
                    }
                  }
                  JOINT LeftHandPinky1
                  {
                    OFFSET 2.8655 -0.310005 -1.600378
                    CHANNELS 3 Zrotation Yrotation Xrotation
                    JOINT LeftHandPinky2
                    {
                      OFFSET 5.087849 -1.331141 -1.77123
                      CHANNELS 3 Zrotation Yrotation Xrotation
                      JOINT LeftHandPinky3
                      {
                        OFFSET 3.070974 4e-06 0.0
                        CHANNELS 3 Zrotation Yrotation Xrotation
                        JOINT LeftHandPinky4
                        {
                          OFFSET 1.549672 0.0 1e-06
                          CHANNELS 3 Zrotation Yrotation Xrotation
                          JOINT LeftHandPinkyEnd
                          {
                            OFFSET 1.944893 -0.157802 0.057219
                            CHANNELS 3 Zrotation Yrotation Xrotation
                          }
                        }
                      }
                    }
                  }
                }
              }
            }
          }
          JOINT RightShoulder
          {
            OFFSET -1.380118 23.180309 5.214158
            CHANNELS 3 Zrotation Yrotation Xrotation
            JOINT RightArm
            {
              OFFSET -15.037196 1.2e-05 -5.545604
              CHANNELS 3 Zrotation Yrotation Xrotation
              JOINT RightForeArm
              {
                OFFSET -28.736639 2e-06 -0.002597
                CHANNELS 3 Zrotation Yrotation Xrotation
                JOINT RightHand
                {
                  OFFSET -27.133619 -0.0 0.002613
                  CHANNELS 3 Zrotation Yrotation Xrotation
                  JOINT RightHandThumb1
                  {
                    OFFSET -2.274032 -1.383988 3.163127
                    CHANNELS 3 Zrotation Yrotation Xrotation
                    JOINT RightHandThumb2
                    {
                      OFFSET -4.011429 -1.827466 1.640914
                      CHANNELS 3 Zrotation Yrotation Xrotation
                      JOINT RightHandThumb3
                      {
                        OFFSET -2.794935 -4e-06 -3e-06
                        CHANNELS 3 Zrotation Yrotation Xrotation
                        JOINT RightHandThumbEnd
                        {
                          OFFSET -3.183852 4e-06 1e-06
                          CHANNELS 3 Zrotation Yrotation Xrotation
                        }
                      }
                    }
                  }
                  JOINT RightHandIndex1
                  {
                    OFFSET -3.253266 -0.520057 2.282866
                    CHANNELS 3 Zrotation Yrotation Xrotation
                    JOINT RightHandIndex2
                    {
                      OFFSET -6.341917 0.012471 0.178266
                      CHANNELS 3 Zrotation Yrotation Xrotation
                      JOINT RightHandIndex3
                      {
                        OFFSET -3.654871 -8e-06 -0.0
                        CHANNELS 3 Zrotation Yrotation Xrotation
                        JOINT RightHandIndex4
                        {
                          OFFSET -2.327586 0.0 1e-06
                          CHANNELS 3 Zrotation Yrotation Xrotation
                          JOINT RightHandIndexEnd
                          {
                            OFFSET -2.76179 -0.180656 -0.113078
                            CHANNELS 3 Zrotation Yrotation Xrotation
                          }
                        }
                      }
                    }
                  }
                  JOINT RightHandMiddle1
                  {
                    OFFSET -3.168106 0.246593 1.00103
                    CHANNELS 3 Zrotation Yrotation Xrotation
                    JOINT RightHandMiddle2
                    {
                      OFFSET -6.180828 -0.258836 -1.000895
                      CHANNELS 3 Zrotation Yrotation Xrotation
                      JOINT RightHandMiddle3
                      {
                        OFFSET -4.348901 0.0 -0.0
                        CHANNELS 3 Zrotation Yrotation Xrotation
                        JOINT RightHandMiddle4
                        {
                          OFFSET -3.00024 -4e-06 -2e-06
                          CHANNELS 3 Zrotation Yrotation Xrotation
                          JOINT RightHandMiddleEnd
                          {
                            OFFSET -2.30252 -0.29437 -0.031706
                            CHANNELS 3 Zrotation Yrotation Xrotation
                          }
                        }
                      }
                    }
                  }
                  JOINT RightHandRing1
                  {
                    OFFSET -2.88569 -0.067952 -0.308858
                    CHANNELS 3 Zrotation Yrotation Xrotation
                    JOINT RightHandRing2
                    {
                      OFFSET -5.854198 -0.48613 -1.373731
                      CHANNELS 3 Zrotation Yrotation Xrotation
                      JOINT RightHandRing3
                      {
                        OFFSET -4.33881 -4e-06 -0.0
                        CHANNELS 3 Zrotation Yrotation Xrotation
                        JOINT RightHandRing4
                        {
                          OFFSET -2.654903 -4e-06 4e-06
                          CHANNELS 3 Zrotation Yrotation Xrotation
                          JOINT RightHandRingEnd
                          {
                            OFFSET -1.933568 0.077527 -5.2e-05
                            CHANNELS 3 Zrotation Yrotation Xrotation
                          }
                        }
                      }
                    }
                  }
                  JOINT RightHandPinky1
                  {
                    OFFSET -2.866425 -0.342796 -1.584145
                    CHANNELS 3 Zrotation Yrotation Xrotation
                    JOINT RightHandPinky2
                    {
                      OFFSET -5.091371 -1.332055 -1.772385
                      CHANNELS 3 Zrotation Yrotation Xrotation
                      JOINT RightHandPinky3
                      {
                        OFFSET -3.062664 -4e-06 1e-06
                        CHANNELS 3 Zrotation Yrotation Xrotation
                        JOINT RightHandPinky4
                        {
                          OFFSET -1.546529 4e-06 -2e-06
                          CHANNELS 3 Zrotation Yrotation Xrotation
                          JOINT RightHandPinkyEnd
                          {
                            OFFSET -1.945119 -0.157718 0.057211
                            CHANNELS 3 Zrotation Yrotation Xrotation
                          }
                        }
                      }
                    }
                  }
                }
              }
            }
          }
        }
      }
    }
    JOINT LeftLeg
    {
      OFFSET 10.043214 -8.434526 2.595655
      CHANNELS 3 Zrotation Yrotation Xrotation
      JOINT LeftShin
      {
        OFFSET -1e-06 -43.221752 -0.802913
        CHANNELS 3 Zrotation Yrotation Xrotation
        JOINT LeftFoot
        {
          OFFSET 1e-06 -42.155094 -3.481523
          CHANNELS 3 Zrotation Yrotation Xrotation
          JOINT LeftToeBase
          {
            OFFSET 0.0 -5.059472 13.231529
            CHANNELS 3 Zrotation Yrotation Xrotation
            JOINT LeftToeEnd
            {
              OFFSET -0.009607 -1.647619 6.513017
              CHANNELS 3 Zrotation Yrotation Xrotation
            }
          }
        }
      }
    }
    JOINT RightLeg
    {
      OFFSET -10.047278 -8.29526 2.620317
      CHANNELS 3 Zrotation Yrotation Xrotation
      JOINT RightShin
      {
        OFFSET 1e-06 -43.362206 -0.805556
        CHANNELS 3 Zrotation Yrotation Xrotation
        JOINT RightFoot
        {
          OFFSET 2e-06 -42.117393 -3.478398
          CHANNELS 3 Zrotation Yrotation Xrotation
          JOINT RightToeBase
          {
            OFFSET -0.0 -5.079609 13.284196
            CHANNELS 3 Zrotation Yrotation Xrotation
            JOINT RightToeEnd
            {
              OFFSET 0.009532 -1.634378 6.460591
              CHANNELS 3 Zrotation Yrotation Xrotation
            }
          }
        }
      }
    }
  }
}
MOTION
Frames: 4
Frame Time: 0.03333333333333333
0.0 0.0 0.0 0.0 -0.0 0.0 0.686056 100.134048 -0.009923 -2.362662 -3.203498 1.194508 -0.277701 -0.028329 0.101895 -0.643514 0.168983 -5.106529 -6.826219 -2.900055 9.426725 1.556882 2.502962 22.952124 1.284769 6.7738 -3.310272 3.050855 5.407316 13.235471 7.7e-05 -2.3e-05 5e-06 0.057784 -0.117797 -0.130146 0.924597 -3.850157 -10.43145 -0.806554 3.612391 -10.378232 -7.178285 -12.588202 9.987411 -73.605934 -38.152843 11.469835 162.686615 -71.717941 -165.261993 24.9522 19.975866 -94.462006 -5.882113 9.861289 0.702593 -10.93688 -0.360571 7.156209 -0.0 8.774828 2e-06 -14.634192 17.064863 5.894773 -1.844034 2.498505 -2.507278 -10.16361 4.67895 4.621113 -20.976038 -1e-06 2e-06 -21.226303 2.4517 -3.594002 -0.0 -6e-06 1e-06 -1.362683 2.240799 -0.746322 -21.33493 0.584914 3.008324 -13.821228 -0.0 1e-06 -23.887192 -0.249075 -0.839487 -58.856903 2.840494 -1.964222 -0.294024 1.679687 0.833256 -14.218221 0.093218 1.30058 -34.212078 -0.287558 0.967167 -20.033232 0.96454 1.212841 -0.0 1e-06 0.0 -3.440391 0.788234 0.501657 -15.928198 -3.167307 2.999708 -6.338833 0.0 1e-06 -18.123465 3.648187 -4.905674 -5e-06 0.0 -2e-06 -8.236346 10.546198 7.61402 -36.215141 59.76368 -42.577263 -10.481035 81.683342 -5.075913 -0.848553 -15.57229 1.923482 2.243542 -5.255036 -3.180159 14.282889 -0.826593 6.952503 -6e-06 -12.690601 2e-06 16.767693 -18.071455 2.596843 1.665666 -1.955918 -2.878299 4.727797 -4.170584 4.993924 11.020524 6e-06 -3e-06 12.109051 -3.735711 -2.866784 -1e-06 -1e-06 -1e-06 1.291984 -1.928546 -1.498089 14.800129 0.56747 3.865607 14.242569 -1.341733 -6.660658 19.631968 0.14393 -0.648243 50.192535 -1.552394 -6.510385 0.353028 -1.51115 -0.03194 20.22279 3.684311 2.31663 18.78727 1.1e-05 -0.0 10.751627 -0.479866 1.397907 3e-06 1e-06 1e-06 3.273806 0.305948 -0.580111 21.486813 11.830376 2.266129 8.162926 2e-06 -1e-06 18.399076 -3.79898 -4.940572 4e-06 -0.0 -2e-06 10.06158 26.946817 -1.142972 0.036588 -0.291816 8.307487 -8.735993 4.413661 -5.46525 1.64968 -1.92896 -0.004754 -0.0 -0.0 2e-06 -1.020516 -13.909043 -1.345209 -0.063049 -0.171006 3.113235 4.853638 -12.059895 -0.817357 -1.424141 0.948917 0.96747 0.0 -0.0 -1e-06 
0.0 0.0 0.0 0.0 -0.0 0.0 0.710456 100.147888 -0.021584 -2.346232 -3.131071 1.23677 -0.277624 -0.061047 0.103271 -0.646969 0.102119 -5.124216 -6.80893 -2.954394 9.395826 1.435949 2.691896 22.922712 1.279492 6.788384 -3.26543 3.12146 5.387994 13.688047 7.7e-05 -2.2e-05 5e-06 0.056687 -0.114376 -0.122224 0.924029 -3.84584 -10.399179 -0.807546 3.614469 -10.34622 -6.708055 -12.898382 9.902452 -75.783058 -39.074242 13.646952 161.553268 -73.332527 -163.994339 24.955914 18.388243 -97.610611 -5.882109 9.861292 0.702592 -10.93688 -0.360572 7.156212 -1e-06 8.774833 1e-06 -14.934077 16.886917 5.767529 -1.844035 2.498507 -2.50728 -10.163607 4.678949 4.621113 -20.976042 -1e-06 3e-06 -21.226305 2.4517 -3.594002 -0.0 -7e-06 -1e-06 -1.362682 2.240801 -0.746324 -21.33493 0.584913 3.008326 -13.821225 -1e-06 1e-06 -23.887188 -0.249077 -0.839485 -59.170826 2.810342 -1.976954 -0.294026 1.679689 0.833257 -14.218219 0.093217 1.300583 -34.212074 -0.28756 0.967172 -20.03323 0.96454 1.212844 0.0 -0.0 1e-06 -3.440391 0.788234 0.501657 -15.928201 -3.16731 2.99971 -6.338831 0.0 1e-06 -18.123463 3.648188 -4.905674 -4e-06 0.0 -1e-06 -8.431441 10.744159 7.552268 -36.857403 59.97234 -43.11692 -10.562946 81.560432 -5.186639 -0.574774 -15.251872 2.452198 2.243542 -5.255038 -3.180158 14.282894 -0.826592 6.952502 -4e-06 -12.690604 1e-06 16.79936 -18.075176 2.56525 1.665667 -1.955921 -2.878299 4.7278 -4.170585 4.993925 11.020529 5e-06 -2e-06 12.109056 -3.735716 -2.866786 -1e-06 -0.0 1e-06 1.291985 -1.928548 -1.498091 14.800134 0.567468 3.865607 14.242577 -1.341734 -6.66066 19.631973 0.143927 -0.648243 50.196667 -1.516958 -6.519221 0.353029 -1.511149 -0.03194 20.222797 3.684312 2.31663 18.787275 9e-06 -2e-06 10.751631 -0.479867 1.397907 1e-06 1e-06 0.0 3.273808 0.305948 -0.580111 21.486816 11.830377 2.266131 8.16293 2e-06 -1e-06 18.399088 -3.798982 -4.940575 4e-06 1e-06 -2e-06 9.99211 26.871754 -1.168686 0.038642 -0.301748 8.184397 -8.743897 4.327271 -5.454027 1.650346 -1.928909 -0.001914 0.0 -0.0 2e-06 -1.041699 -13.941975 -1.320779 -0.06843 -0.1752 2.959924 4.841755 -12.184753 -0.728535 -1.423788 0.943563 0.959706 0.0 -0.0 -1e-06 
0.0 0.0 0.0 0.0 -0.0 0.0 0.740394 100.168777 -0.032153 -2.331566 -3.082413 1.315455 -0.257998 -0.093714 0.089435 -0.644924 0.040034 -5.143921 -6.778554 -2.999137 9.369265 1.298159 2.883044 22.83651 1.27371 6.805347 -3.228847 3.159025 5.36393 14.083294 7.7e-05 -2.3e-05 7e-06 0.05185 -0.106559 -0.117261 0.920367 -3.839805 -10.372391 -0.812824 3.623092 -10.320182 -6.352408 -13.149827 9.853037 -77.528107 -39.598068 15.472755 161.084091 -74.326355 -163.425323 24.919966 17.13905 -99.66288 -5.882112 9.861293 0.702593 -10.93688 -0.360573 7.156211 -0.0 8.774833 -0.0 -15.13984 16.77494 5.722213 -1.844034 2.498506 -2.507279 -10.16361 4.67895 4.621112 -20.976044 -3e-06 1e-06 -21.226305 2.4517 -3.594001 -0.0 -7e-06 -1e-06 -1.362684 2.2408 -0.746326 -21.334932 0.58491 3.008327 -13.821226 -2e-06 2e-06 -23.887192 -0.249078 -0.839483 -59.437645 2.803383 -1.956499 -0.294025 1.679689 0.833257 -14.218221 0.093216 1.300581 -34.212078 -0.287562 0.967171 -20.033232 0.964537 1.212843 0.0 1e-06 1e-06 -3.440391 0.788234 0.501656 -15.9282 -3.167312 2.999709 -6.33883 0.0 1e-06 -18.123461 3.648187 -4.905673 -4e-06 1e-06 -1e-06 -8.653344 10.889439 7.443213 -37.584663 60.147652 -43.787849 -10.944592 81.3405 -5.621316 -0.142803 -15.033074 2.726647 2.243542 -5.25504 -3.180161 14.282902 -0.826593 6.952512 -6e-06 -12.690607 2e-06 16.80254 -18.054478 2.549226 1.665666 -1.955921 -2.878302 4.727801 -4.170588 4.993929 11.020535 6e-06 -1e-06 12.109059 -3.735713 -2.866787 -1e-06 -0.0 -0.0 1.291986 -1.928549 -1.498091 14.80014 0.56747 3.86561 14.242583 -1.341733 -6.660662 19.631979 0.14393 -0.648243 50.192036 -1.471697 -6.525383 0.353029 -1.511151 -0.03194 20.222807 3.684314 2.316631 18.787287 1e-05 0.0 10.751636 -0.479867 1.397906 1e-06 1e-06 0.0 3.273809 0.30595 -0.580112 21.48683 11.830383 2.266133 8.162933 2e-06 0.0 18.399096 -3.798983 -4.940575 3e-06 -0.0 -1e-06 9.917223 26.899988 -1.183334 0.038334 -0.327773 7.98879 -8.756713 4.219916 -5.383188 1.651266 -1.922665 -0.01442 0.0 -0.0 2e-06 -1.061399 -13.977106 -1.295335 -0.074436 -0.174482 2.726292 4.854985 -12.270395 -0.585806 -1.422809 0.939667 0.971349 0.0 -0.0 -1e-06 
0.0 0.0 0.0 0.0 -0.0 0.0 0.769399 100.190208 -0.032646 -2.316999 -3.06677 1.421149 -0.226641 -0.122332 0.066146 -0.634903 0.001282 -5.156499 -6.735886 -3.038782 9.329354 1.156877 3.027404 22.718115 1.278953 6.857239 -3.206609 3.138931 5.357666 14.405603 7.7e-05 -2.3e-05 7e-06 0.041505 -0.092198 -0.118848 0.91099 -3.829749 -10.364156 -0.823464 3.640222 -10.312826 -6.122043 -13.321095 9.773988 -78.7733 -39.684471 16.926342 161.382599 -74.742149 -163.686142 24.856617 16.166821 -100.466782 -5.882106 9.86129 0.702591 -10.936875 -0.360574 7.156211 -0.0 8.774829 0.0 -15.228438 16.707218 5.748368 -1.844032 2.498505 -2.507277 -10.163604 4.678946 4.621109 -20.976034 -6e-06 3e-06 -21.226295 2.451698 -3.594 2e-06 -7e-06 -1e-06 -1.362682 2.240799 -0.746324 -21.334921 0.58491 3.008326 -13.821218 -2e-06 3e-06 -23.887178 -0.249078 -0.839483 -59.618668 2.782448 -1.89929 -0.294024 1.679687 0.833257 -14.218213 0.093214 1.300582 -34.212059 -0.287564 0.967173 -20.033222 0.964537 1.212845 -0.0 1e-06 0.0 -3.44039 0.788234 0.501655 -15.928192 -3.167311 2.999709 -6.338829 -0.0 2e-06 -18.123457 3.648185 -4.905671 -3e-06 1e-06 -4e-06 -8.854568 10.966681 7.275508 -38.300617 60.344189 -44.613594 -10.965188 81.057121 -5.735268 0.450314 -14.90677 2.759869 2.243541 -5.255033 -3.180157 14.282887 -0.826594 6.952502 -5e-06 -12.690599 1e-06 16.761902 -17.997179 2.530603 1.665667 -1.955923 -2.878299 4.727797 -4.170584 4.993924 11.020521 6e-06 -3e-06 12.109049 -3.735714 -2.866785 -1e-06 -0.0 -0.0 1.291986 -1.928549 -1.498088 14.800125 0.567467 3.865606 14.242568 -1.341735 -6.660657 19.631962 0.14393 -0.648245 50.138474 -1.422699 -6.517919 0.353029 -1.511149 -0.03194 20.222786 3.68431 2.316627 18.787266 8e-06 -2e-06 10.751624 -0.479868 1.397906 1e-06 1e-06 -1e-06 3.273806 0.305949 -0.58011 21.486809 11.83037 2.26613 8.162924 0.0 -1e-06 18.399076 -3.79898 -4.940572 4e-06 -0.0 -2e-06 9.830371 26.964596 -1.20352 0.036867 -0.355343 7.773274 -8.783261 4.143414 -5.29292 1.65168 -1.912709 -0.03919 0.0 -0.0 2e-06 -1.081371 -13.994267 -1.304168 -0.073773 -0.17004 2.505396 4.892857 -12.317569 -0.445931 -1.422932 0.937303 0.975091 -0.0 -0.0 -1e-06 
